<?xml version="1.0" encoding="iso-8859-1"?>
<!-- Generator: Adobe Illustrator 18.1.1, SVG Export Plug-In . SVG Version: 6.00 Build 0)  -->
<svg xmlns="http://www.w3.org/2000/svg" xmlns:xlink="http://www.w3.org/1999/xlink" version="1.1" id="Capa_1" x="0px" y="0px" viewBox="0 0 441.658 441.658" style="enable-background:new 0 0 441.658 441.658;" xml:space="preserve" width="512px" height="512px">
<g>
	<g>
		<path d="M143.286,239.468c-3.178,3.178-3.178,8.307,0,11.494l71.8,71.792    c0.748,0.764,1.65,1.341,2.634,1.764c1,0.415,2.048,0.626,3.121,0.626c1.065,0,2.113-0.211,3.113-0.626    c0.984-0.423,1.878-1,2.634-1.764l71.808-71.792c3.17-3.186,3.17-8.332,0-11.494c-3.186-3.186-8.316-3.186-11.494,0L228.97,297.4    V8.129c0-4.495-3.633-8.129-8.129-8.129c-4.503,0-8.129,3.633-8.129,8.129V297.4l-57.924-57.932    C151.602,236.281,146.473,236.281,143.286,239.468z" fill="#000000"/>
		<path d="M386.111,94.828h-85.342c-4.495,0-8.129,3.642-8.129,8.129c0,4.487,3.633,8.129,8.129,8.129h77.213    v314.316H63.675V111.085h79.619c4.487,0,8.129-3.642,8.129-8.129c0-4.487-3.642-8.129-8.129-8.129H55.547    c-4.487,0-8.129,3.642-8.129,8.129v330.573c0,4.495,3.642,8.129,8.129,8.129h330.565c4.495,0,8.129-3.633,8.129-8.129V102.957    C394.24,98.47,390.606,94.828,386.111,94.828z" fill="#000000"/>
	</g>
</g>
<g>
</g>
<g>
</g>
<g>
</g>
<g>
</g>
<g>
</g>
<g>
</g>
<g>
</g>
<g>
</g>
<g>
</g>
<g>
</g>
<g>
</g>
<g>
</g>
<g>
</g>
<g>
</g>
<g>
</g>
</svg>
