<?xml version="1.0" encoding="utf-8"?>
<!-- Generator: Adobe Illustrator 16.0.0, SVG Export Plug-In . SVG Version: 6.00 Build 0)  -->
<!DOCTYPE svg PUBLIC "-//W3C//DTD SVG 1.1//EN" "http://www.w3.org/Graphics/SVG/1.1/DTD/svg11.dtd">
<svg version="1.1" id="Layer_1" xmlns="http://www.w3.org/2000/svg" xmlns:xlink="http://www.w3.org/1999/xlink" x="0px" y="0px"
	 width="49.96px" height="39.498px" viewBox="-0.281 -0.439 49.96 39.498" enable-background="new -0.281 -0.439 49.96 39.498"
	 xml:space="preserve">
<g>
	<circle fill="none" stroke="#000000" stroke-miterlimit="10" cx="-156.1" cy="-4.7" r="5.3"/>
	<path fill="none" stroke="#000000" stroke-miterlimit="10" d="M-170.1-6.7c3-0.6,5.2-3.2,5.2-6.3c0-3.5-2.9-6.4-6.4-6.4
		s-6.4,2.9-6.4,6.4c0,3.1,2.2,5.7,5.2,6.3c-4.2,1.7-7.5,12-7.5,24.4c0,2.299,0.101,4.6,0.3,6.7h16.7c0.2-2.101,0.3-4.4,0.3-6.7
		C-162.7,5.3-165.9-5-170.1-6.7z"/>
	<path fill="none" stroke="#000000" stroke-miterlimit="10" d="M-156.1,0.6c-3.601,0-6.601,8.4-6.601,18.7
		c0,1.8,0.101,3.5,0.2,5.101h12.7c0.2-1.601,0.2-3.301,0.2-5.101C-149.5,9-152.4,0.6-156.1,0.6z"/>
</g>
<rect x="0.7" y="0.6" fill="none" stroke="#000000" stroke-width="2" stroke-miterlimit="10" width="48" height="7.2"/>
<rect x="0.7" y="7.8" fill="none" stroke="#000000" stroke-width="2" stroke-miterlimit="10" width="15.7" height="30.3"/>
<rect x="16.8" y="7.8" fill="none" stroke="#000000" stroke-width="2" stroke-miterlimit="10" width="15.701" height="30.3"/>
<rect x="33" y="7.8" fill="none" stroke="#000000" stroke-width="2" stroke-miterlimit="10" width="15.699" height="30.3"/>
<line fill="none" stroke="#000000" stroke-width="2" stroke-miterlimit="10" x1="0.7" y1="23" x2="48.7" y2="23"/>
</svg>
